<svg width="56" height="32" viewBox="0 0 56 32" fill="none" xmlns="http://www.w3.org/2000/svg">
<g clip-path="url(#clip0_2_2287)">
<path d="M50 0.915466H6C2.68629 0.915466 0 3.52035 0 6.73365V26.1276C0 29.3409 2.68629 31.9458 6 31.9458H50C53.3137 31.9458 56 29.3409 56 26.1276V6.73365C56 3.52035 53.3137 0.915466 50 0.915466Z" fill="#111827"/>
<mask id="mask0_2_2287" style="mask-type:luminance" maskUnits="userSpaceOnUse" x="0" y="0" width="56" height="32">
<path d="M56 0.915466H0V31.9458H56V0.915466Z" fill="white"/>
</mask>
<g mask="url(#mask0_2_2287)">
<mask id="mask1_2_2287" style="mask-type:luminance" maskUnits="userSpaceOnUse" x="4" y="-7" width="48" height="47">
<path d="M51.7999 -6.34564H4.19995V39.8119H51.7999V-6.34564Z" fill="white"/>
</mask>
<g mask="url(#mask1_2_2287)">
<path d="M12.7314 12.5207C12.5756 12.2175 12.3292 11.9676 12.0232 11.7799C11.7041 11.5903 11.3273 11.4576 10.8967 11.3788C10.4586 11.3019 9.95243 11.2671 9.36604 11.2616L6.6588 11.2634C6.3774 11.2671 6.10168 11.4796 6.03558 11.7432L4.21407 19.4366C4.14797 19.6967 4.32455 19.9146 4.60594 19.9146H5.90243C6.18383 19.9146 6.46239 19.7031 6.52471 19.4366L6.96947 17.5687C7.02895 17.3086 7.30657 17.0916 7.5908 17.0916H7.9619C9.54734 17.0898 10.7749 16.7758 11.6569 16.1466C12.5435 15.5167 12.9807 14.6843 12.9807 13.6534C12.9798 13.2019 12.9033 12.8228 12.7314 12.5207ZM9.93544 15.0341C9.54356 15.3125 8.99871 15.4517 8.29617 15.4517H7.9789C7.69656 15.4517 7.52376 15.2356 7.58513 14.9719L7.97512 13.3383C8.02989 13.0765 8.31411 12.8595 8.59268 12.8613L9.0176 12.8585C9.51334 12.8585 9.892 12.9419 10.1451 13.1031C10.3953 13.2624 10.5209 13.5159 10.519 13.852C10.5266 14.363 10.3254 14.7558 9.93544 15.0341Z" fill="white"/>
<path d="M49.6905 11.8641L49.6093 11.8879L49.5007 11.9025L49.3675 11.8824L49.2996 11.8183L49.2684 11.7175L49.2665 11.5665V11.007H49.6999V10.8339H49.2665V10.485H49.0522V10.8339H48.9067V11.007H49.0522V11.6581L49.1522 11.9803L49.4469 12.0829L49.5706 12.0728L49.7018 12.0481V11.8641H49.6905Z" fill="white"/>
<path d="M51.7008 10.9229L51.3911 10.7993L51.1626 10.8442L50.9303 10.9961L50.7953 10.8506L50.5762 10.8002L50.3656 10.845L50.1664 10.9696V10.8341H49.9558V12.0565H50.1654V11.1436L50.342 11.0373L50.5177 10.9952L50.6612 11.02L50.732 11.0905L50.7632 11.2077L50.7736 11.3588V12.0574H50.9841V11.2754L50.9803 11.2104L50.9766 11.1509L51.156 11.0401L51.3335 10.9971L51.4723 11.0218L51.5479 11.0923L51.5743 11.2104L51.5885 11.3596V12.0583H51.8V11.2644L51.7008 10.9229Z" fill="white"/>
<path d="M18.9835 13.6202C18.4944 13.3529 17.722 13.2192 16.6663 13.2192C16.1441 13.2192 15.6238 13.2585 15.0978 13.3373C14.7097 13.395 14.672 13.406 14.4331 13.4564C13.9402 13.5607 13.8627 14.0378 13.8627 14.0378L13.7041 14.6705C13.6144 15.0743 13.8542 15.0588 13.9543 15.0248C14.1696 14.9626 14.2895 14.8985 14.7296 14.8033C15.1498 14.7108 15.5926 14.6412 15.9439 14.6458C16.4623 14.6458 16.8589 14.6989 17.1233 14.807C17.3839 14.9168 17.5142 15.1054 17.5142 15.3783L17.4916 15.556L17.3046 15.6677C16.569 15.7126 16.0374 15.7785 15.3924 15.8692C14.7617 15.9543 14.2083 16.1035 13.7485 16.3078C13.2546 16.5183 12.8882 16.8012 12.6323 17.1611C12.3849 17.5228 12.2612 17.9614 12.2612 18.476C12.2612 18.9604 12.4406 19.3606 12.7891 19.67C13.1394 19.974 13.6021 20.1224 14.1554 20.1224C14.5058 20.1205 14.7768 20.0939 14.9694 20.0491L15.5974 19.8394L16.129 19.5537L16.6181 19.2406L16.6247 19.2497L16.5756 19.4512L16.5728 19.4595V19.4613C16.5199 19.7066 16.6729 19.9081 16.9193 19.9319L16.9241 19.9374H16.9467H17.941H18.128L18.145 19.9301C18.4037 19.9008 18.6464 19.6994 18.7031 19.4595L19.6483 15.4919L19.6974 15.1687L19.7201 14.8655C19.7238 14.3033 19.4736 13.8867 18.9835 13.6202ZM16.8929 18.0813L16.6908 18.3396L16.1809 18.5951C15.9411 18.6893 15.7135 18.7369 15.5029 18.7369C15.1838 18.7369 14.9335 18.6921 14.7645 18.6005L14.5143 18.1289C14.5143 17.8735 14.5747 17.6712 14.7041 17.5155L15.2536 17.1528C15.4888 17.076 15.7758 17.011 16.1082 16.9661C16.4047 16.9304 16.9902 16.8653 17.0667 16.8635L17.1564 17.0164C17.1384 17.1034 16.9722 17.7773 16.8929 18.0813Z" fill="white"/>
<path d="M42.5319 13.6259C42.0399 13.3585 41.2684 13.2239 40.2156 13.2239C39.6934 13.2239 39.1721 13.2633 38.6481 13.3449C38.259 13.3997 38.2203 13.4117 37.9805 13.4611C37.4885 13.5646 37.412 14.0434 37.412 14.0434L37.2534 14.6753C37.1646 15.0791 37.3988 15.0607 37.5083 15.0296C37.7246 14.9674 37.8407 14.906 38.277 14.8072C38.6953 14.7155 39.1419 14.6478 39.4941 14.6496C40.0107 14.6496 40.4073 14.7037 40.6707 14.8117C40.9332 14.9216 41.0616 15.112 41.0616 15.3822L41.0418 15.5589L40.8567 15.6733C40.1136 15.7163 39.581 15.7823 38.9427 15.873C38.3138 15.9581 37.7586 16.1065 37.2977 16.3116C36.8058 16.523 36.4347 16.806 36.1816 17.1668C35.9314 17.5284 35.8096 17.9661 35.8096 18.4762C35.8096 18.9643 35.9871 19.3644 36.3403 19.672C36.6925 19.9752 37.1504 20.1271 37.7038 20.1271C38.0522 20.1234 38.3232 20.1015 38.5168 20.0529L39.1429 19.846L39.6792 19.5603L40.1646 19.2435L40.1731 19.2536L40.1287 19.4569L40.124 19.4605L40.1259 19.4641C40.0673 19.7096 40.2212 19.9128 40.4705 19.9348L40.4724 19.9394H40.4951C40.6584 19.9394 41.2231 19.9394 41.4922 19.9394H41.6754L41.6952 19.933C41.9511 19.9028 42.1929 19.7013 42.2467 19.4587L43.1948 15.4966L43.2448 15.1716L43.2722 14.8676C43.2731 14.3072 43.0257 13.8923 42.5319 13.6259ZM40.446 18.0871L40.2354 18.348L39.7302 18.6016C39.4904 18.6951 39.2618 18.7435 39.055 18.7435C38.7255 18.7435 38.4819 18.6978 38.3176 18.6062L38.0645 18.1364C38.0645 17.88 38.1259 17.6796 38.2496 17.5212C38.3752 17.3719 38.5669 17.2491 38.8048 17.1595C39.0371 17.0826 39.3242 17.0203 39.6584 16.9736C39.9531 16.9379 40.5366 16.8711 40.6122 16.8701L40.7038 17.023C40.6905 17.11 40.5234 17.7812 40.446 18.0871Z" fill="white"/>
<path d="M36.2761 12.549C36.1137 12.2441 35.87 11.9978 35.5622 11.8055C35.2468 11.615 34.8729 11.4813 34.4357 11.4044C34.006 11.3302 33.4933 11.29 32.9107 11.289L30.1997 11.2908C29.9173 11.2955 29.6463 11.5079 29.5812 11.7688L27.7578 19.4659C27.6917 19.7268 27.873 19.943 28.1487 19.943L29.4471 19.9411C29.7228 19.943 30.0052 19.7287 30.0703 19.465L30.5094 17.5961C30.5736 17.336 30.8522 17.1173 31.1326 17.119H31.5037C33.091 17.119 34.3214 16.8022 35.2072 16.175C36.0825 15.5404 36.5254 14.71 36.5254 13.678C36.5207 13.2284 36.4404 12.8484 36.2761 12.549ZM33.4801 15.0662C33.0892 15.339 32.5434 15.4782 31.8446 15.4782H31.5217C31.2431 15.4809 31.0627 15.2612 31.1251 14.9994L31.5179 13.3685C31.5755 13.1076 31.8569 12.8887 32.1373 12.8914L32.5575 12.8887C33.0561 12.8914 33.43 12.9711 33.685 13.1323C33.939 13.2935 34.0589 13.5462 34.0618 13.8813C34.0646 14.3922 33.8691 14.7859 33.4801 15.0662Z" fill="white"/>
<path d="M47.393 11.8302C47.4525 11.5674 47.2825 11.3541 47.004 11.3578H45.8425C45.6045 11.3578 45.3902 11.529 45.2854 11.7396L45.2212 11.8367L45.1626 12.0857L43.5394 19.2407L43.4865 19.4605L43.4884 19.466C43.4346 19.7012 43.5838 19.8789 43.8142 19.9128L43.834 19.9393H45.0399C45.2759 19.9393 45.4978 19.7653 45.5989 19.5511L45.6612 19.4595L47.3968 11.8312L47.393 11.8302Z" fill="white"/>
<path d="M27.7937 13.3155C27.4868 13.3191 26.2394 13.3155 26.2394 13.3155C25.9599 13.3155 25.6011 13.5342 25.4235 13.7953C25.4235 13.7953 23.5671 16.8846 23.3867 17.195L23.1714 17.1923L22.5935 13.8163C22.5293 13.5507 22.2432 13.3237 21.8872 13.3237L20.7258 13.3255C20.4463 13.3255 20.2744 13.5416 20.3377 13.8053C20.3377 13.8053 21.2196 18.6721 21.3962 19.8176C21.4783 20.4493 21.3858 20.562 21.3858 20.562L20.2376 22.5013C20.0676 22.7651 20.1592 22.9802 20.4378 22.9802L21.7805 22.9784C22.06 22.9784 22.4273 22.7651 22.5935 22.5004L27.7587 14.0287C27.7587 14.0287 28.2554 13.3054 27.7937 13.3155Z" fill="white"/>
</g>
</g>
</g>
<defs>
<clipPath id="clip0_2_2287">
<rect width="56" height="32" fill="white"/>
</clipPath>
</defs>
</svg>
