<svg width="56" height="32" viewBox="0 0 56 32" fill="none" xmlns="http://www.w3.org/2000/svg">
<g clip-path="url(#clip0_2_2308)">
<path d="M50 0.915466H6C2.68629 0.915466 0 3.52035 0 6.73365V26.1276C0 29.3409 2.68629 31.9458 6 31.9458H50C53.3137 31.9458 56 29.3409 56 26.1276V6.73365C56 3.52035 53.3137 0.915466 50 0.915466Z" fill="#111827"/>
<mask id="mask0_2_2308" style="mask-type:luminance" maskUnits="userSpaceOnUse" x="0" y="0" width="56" height="32">
<path d="M56 0.915466H0V31.9458H56V0.915466Z" fill="white"/>
</mask>
<g mask="url(#mask0_2_2308)">
<mask id="mask1_2_2308" style="mask-type:luminance" maskUnits="userSpaceOnUse" x="5" y="-6" width="46" height="45">
<path d="M50.4 -5.29053H5.59998V38.1519H50.4V-5.29053Z" fill="white"/>
</mask>
<g mask="url(#mask1_2_2308)">
<path d="M19.2681 8.14557V8.8488L19.269 8.84969H20.0005V8.14557H19.2681Z" fill="white"/>
<path d="M20.7374 7.43085H20.0005V8.14546H20.7374V7.43085Z" fill="white"/>
<path d="M18.6151 10.2596V9.55982H19.2689V8.84958L17.9314 8.84869V9.55982H17.2622V10.9278H17.9314L17.9305 10.2596H18.6151L18.6142 10.9287H17.9305V11.5916H17.2613V12.266H16.5659V11.5925H17.2604V10.9287H16.5659V10.2902H15.8759V10.9287H16.5659L16.565 11.5916H15.4162V12.0785H14.7993V12.674H15.4893V13.3379H14.7993V12.674H14.0669V13.7171H13.376V14.3845H12.9172V15.0517H12.4151C11.8452 15.8697 10.4236 18.42 9.99465 19.4568C8.44668 17.3664 7.2446 16.538 6.29812 16.2402C5.79056 16.0913 5.1692 16.6308 6.02086 17.4785C7.96531 19.5567 8.58215 21.2776 9.1728 22.649C9.48709 23.3724 10.8924 23.4854 11.175 22.748C11.7711 21.19 12.6444 19.4403 13.6686 18.0031V17.2578H14.2231L14.224 16.5852H14.7993V15.8093H15.4947V15.0579H14.7993V14.388H15.4947V15.0579H16.1739V14.3845H16.723V13.569H17.3344V13.0094H17.9305V11.5916L18.6151 11.5925L18.6142 10.9287H19.3836V10.2596H18.6151Z" fill="white"/>
<path d="M34.503 14.0632C34.1264 14.0632 33.8284 14.3521 33.8284 14.7156C33.8266 15.0896 34.1517 15.354 34.5229 15.354C34.8742 15.354 35.1614 15.0651 35.1614 14.7156C35.1614 14.3521 34.8742 14.0632 34.503 14.0632Z" fill="white"/>
<path d="M25.4057 14.0632C25.0345 14.0632 24.7365 14.3521 24.7365 14.7156C24.7365 15.0896 25.0607 15.354 25.431 15.354C25.7823 15.354 26.0695 15.0651 26.0695 14.7156C26.0695 14.3521 25.7823 14.0632 25.4057 14.0632Z" fill="white"/>
<path d="M20.7374 8.85321H20.0005V9.56784H20.7374V8.85321Z" fill="white"/>
<path d="M48.0364 20.7365V18.5287C48.0364 17.3805 47.3681 16.8639 46.1787 16.8639C45.3008 16.8639 44.6262 17.2115 44.1945 17.9603H44.1683L44.0057 16.8639C43.3925 16.9716 42.9328 17.1651 42.2925 17.2369V17.4778C42.6881 17.4778 43.0249 17.4279 43.1234 17.8622C43.1857 18.1407 43.1857 18.9859 43.1857 19.3248V20.8057C43.1857 21.6026 43.2462 21.8908 42.3124 21.9538V22.1947C42.7964 22.1815 43.2724 22.157 43.761 22.1456C44.2053 22.157 44.665 22.1815 45.1148 22.1947V21.9547C44.1313 21.8952 44.2405 21.5326 44.2405 20.7347V18.8641C44.2405 17.9831 44.8619 17.2474 45.8364 17.2474C47.0204 17.2474 46.9834 18.4306 46.9834 19.2626V20.8066C46.9834 21.6035 47.0439 21.8917 46.1082 21.9547V22.1956C46.595 22.1824 47.0665 22.1579 47.5532 22.1465C48.003 22.1579 48.4636 22.1824 48.9116 22.1956V21.9547C47.9362 21.8934 48.0364 21.53 48.0364 20.7365Z" fill="white"/>
<path d="M41.3407 16.9022C40.8855 16.9022 40.4674 17.1562 40.1323 17.4092C39.7069 17.0362 39.1235 16.8672 38.5482 16.8672C37.329 16.8672 36.21 17.5546 36.21 18.8341C36.21 19.6048 36.8178 20.2687 37.5394 20.4981V20.5218C37.0065 20.5935 36.4475 20.9806 36.4475 21.5604C36.4475 22.6446 37.5764 22.6227 38.4019 22.6446C39.2581 22.6945 40.6299 22.6341 40.6299 23.8164C40.6299 24.7929 39.6825 25.1555 38.8092 25.1555C37.9359 25.1555 36.8331 24.947 36.8331 23.8987C36.8331 23.5239 37.068 23.114 37.4762 23.0422C37.3299 22.91 37.1664 22.8233 36.9587 22.8233C36.4186 22.8233 36.0375 23.3321 36.0375 23.8269C36.0375 25.0836 37.6162 25.4313 38.6466 25.4313C40.0058 25.4313 41.4698 24.9365 41.4698 23.4057C41.4698 21.7872 40.1314 21.7382 38.8598 21.6436L38.0235 21.6059C37.7507 21.5823 37.0652 21.6304 37.0652 21.2075C37.0652 20.7153 38.0235 20.7153 38.401 20.7013C39.6816 20.6417 40.7898 20.231 40.7898 18.8078C40.7898 18.3709 40.638 17.9479 40.3409 17.623C40.4755 17.5161 40.6751 17.3953 40.853 17.3953C41.2341 17.3953 41.2766 17.8148 41.6577 17.8148C41.9006 17.8148 42.0713 17.6352 42.0713 17.4163C42.0713 17.0449 41.6577 16.8987 41.3407 16.9022ZM38.4615 20.4245C37.562 20.4245 37.2666 19.5304 37.2666 18.8052C37.2666 18.0442 37.5258 17.1422 38.4841 17.1422C39.4306 17.1422 39.7277 18.0337 39.7277 18.8052C39.7277 19.5873 39.4206 20.4245 38.4615 20.4245Z" fill="white"/>
<path d="M49.6557 17.779C49.7984 17.7562 49.9185 17.6766 49.9176 17.4979C49.9176 17.3201 49.8138 17.2246 49.5844 17.2246H49.187V18.2204H49.3189V17.779H49.5266L49.8129 18.2204H49.9646L49.6557 17.779ZM49.4832 17.6775H49.3162V17.3306H49.5456C49.672 17.3306 49.7867 17.363 49.7867 17.5014C49.7867 17.6713 49.635 17.6748 49.4832 17.6775Z" fill="white"/>
<path d="M49.5112 16.8646C49.0118 16.8646 48.6226 17.2402 48.6226 17.7255C48.6226 18.2062 49.0118 18.5864 49.5112 18.5864C50.0107 18.5864 50.3999 18.2089 50.3999 17.7255C50.3999 17.2402 50.0107 16.8646 49.5112 16.8646ZM49.5112 18.4654C49.0804 18.4654 48.758 18.138 48.758 17.7255C48.758 17.313 49.0823 16.9863 49.5112 16.9863C49.9375 16.9863 50.2572 17.3121 50.2572 17.7255C50.2572 18.1353 49.9393 18.4637 49.5112 18.4654Z" fill="white"/>
<path d="M22.8968 16.8629C22.0397 16.8629 21.4165 17.3463 21.0932 18.0829H21.067C21.0833 17.6467 21.0309 17.2123 20.9207 16.8629C20.3725 16.9829 19.8234 17.1992 19.2382 17.2368V17.476C19.6346 17.476 19.9489 17.4278 20.0582 17.8622C20.1476 18.1389 20.1314 18.998 20.1314 19.3229V20.8039C20.1314 21.6009 20.1991 21.8907 19.2634 21.952V22.1946C19.7502 22.1797 20.2208 22.1569 20.7067 22.1455C21.1772 22.1569 21.664 22.1814 22.139 22.1946V21.952C21.0941 21.9038 21.1925 21.6148 21.1925 20.7338V19.5402C21.1925 18.984 21.1925 18.3938 21.4797 17.8981C21.6631 17.595 22.0758 17.2955 22.447 17.2955C22.9329 17.2955 22.8236 17.9235 23.3456 17.9235C23.5813 17.9235 23.7791 17.7186 23.7791 17.4873C23.7791 17.045 23.2824 16.8629 22.8968 16.8629Z" fill="white"/>
<path d="M18.7189 18.9376C18.8445 18.9376 19.0278 18.9875 19.0278 18.8298C19.0278 17.5259 17.8727 16.8629 16.6544 16.8629C15.0332 16.8629 13.8519 18.2239 13.8519 19.7328C13.8519 21.2777 15.1217 22.3277 16.6643 22.3277C17.5999 22.3277 18.2954 22.0028 18.8806 21.3031L18.6187 21.05C18.2475 21.5307 17.683 21.9433 17.0508 21.9433C15.7178 21.9433 15.0955 20.6655 15.0955 19.5174L15.1488 18.9376H18.7189ZM16.6652 17.1423C17.4491 17.1423 17.8727 17.6231 17.8727 18.371C17.8727 18.6731 17.4645 18.6119 17.2658 18.6127H15.212C15.3584 17.828 15.735 17.1423 16.6652 17.1423Z" fill="white"/>
<path d="M35.1696 20.7365V16.8639L33.2043 17.2369V17.4778C33.4536 17.4637 33.9756 17.4401 34.0596 17.7431C34.1129 17.9262 34.1129 18.8545 34.1129 19.0822V20.8066C34.1021 21.6035 34.1752 21.8925 33.2558 21.9556V22.1973C33.7426 22.1833 34.224 22.1596 34.709 22.1474C35.1587 22.1596 35.6193 22.1833 36.0438 22.1973V21.9556C35.0603 21.8969 35.1967 21.5326 35.1696 20.7365Z" fill="white"/>
<path d="M26.0795 20.7365V16.8639L24.1143 17.2369V17.4778C24.3644 17.4637 24.8873 17.4401 24.9713 17.7431C25.0237 17.9262 25.0237 18.8545 25.0237 19.0822V20.8066C25.0075 21.6035 25.086 21.8925 24.1666 21.9556V22.1973C24.6471 22.1833 25.1339 22.1596 25.6198 22.1474C26.0695 22.1596 26.5292 22.1833 26.9528 22.1973V21.9556C25.9702 21.8934 26.1057 21.53 26.0795 20.7365Z" fill="white"/>
<path d="M30.372 17.2623C29.6026 16.9471 28.7202 16.6212 28.7202 15.6667C28.7202 14.8837 29.3786 14.389 30.1725 14.389C31.3808 14.389 31.9643 15.2936 32.2488 16.2955H32.5342L32.4782 14.2085H32.3382L32.0501 14.678C31.491 14.2926 30.8588 14.0632 30.1734 14.0632C28.8196 14.0632 27.7114 14.8592 27.7114 16.2342C27.7114 17.61 28.9144 18.1889 30.0478 18.6119C30.9564 18.9604 31.9408 19.3966 31.9408 20.493C31.9408 21.4695 31.1307 22.002 30.1625 22.002C28.7301 22.002 28.0555 20.9756 27.8108 19.7583H27.5236V22.1115H27.659L27.9571 21.6044C28.6317 22.0869 29.2919 22.3287 30.1372 22.3287C31.5895 22.3287 33.1113 21.5685 33.1113 19.9869C33.1104 18.4087 31.668 17.7791 30.372 17.2623Z" fill="white"/>
</g>
</g>
</g>
<defs>
<clipPath id="clip0_2_2308">
<rect width="56" height="32" fill="white"/>
</clipPath>
</defs>
</svg>
