<svg width="56" height="32" viewBox="0 0 56 32" fill="none" xmlns="http://www.w3.org/2000/svg">
<g clip-path="url(#clip0_2_2272)">
<path d="M50 0.915466H6C2.68629 0.915466 0 3.52035 0 6.73365V26.1276C0 29.3409 2.68629 31.9458 6 31.9458H50C53.3137 31.9458 56 29.3409 56 26.1276V6.73365C56 3.52035 53.3137 0.915466 50 0.915466Z" fill="#111827"/>
<mask id="mask0_2_2272" style="mask-type:luminance" maskUnits="userSpaceOnUse" x="0" y="0" width="56" height="32">
<path d="M56 0.915466H0V31.9458H56V0.915466Z" fill="white"/>
</mask>
<g mask="url(#mask0_2_2272)">
<mask id="mask1_2_2272" style="mask-type:luminance" maskUnits="userSpaceOnUse" x="5" y="-6" width="46" height="45">
<path d="M50.4 -5.29053H5.59998V38.1519H50.4V-5.29053Z" fill="white"/>
</mask>
<g mask="url(#mask1_2_2272)">
<path d="M23.5382 9.96613L21.2614 22.9223H24.9027L27.1814 9.96613H23.5382Z" fill="white"/>
<path d="M18.2081 9.98068L14.6417 18.8165L14.2614 17.4824C13.5581 15.8749 11.5613 13.5662 9.21704 12.1113L12.4782 22.9161L16.3312 22.9097L22.0659 9.97797L18.2081 9.98068Z" fill="white"/>
<path d="M12.879 10.9079C12.6674 10.1187 12.0539 9.8835 11.2925 9.85529H5.6468L5.59998 10.1132C9.99344 11.1467 12.9006 13.637 14.1069 16.6313L12.879 10.9079Z" fill="white"/>
<path d="M34.5616 12.45C35.7529 12.4318 36.6164 12.6843 37.287 12.9458L37.6157 13.0957L38.1084 10.2876C37.3872 10.0251 36.2568 9.74359 34.8463 9.74359C31.248 9.74359 28.7118 11.501 28.6921 14.0194C28.6687 15.8802 30.4987 16.9193 31.8811 17.5395C33.3 18.1752 33.7758 18.5794 33.7692 19.147C33.758 20.0143 32.6379 20.4121 31.5917 20.4121C30.1335 20.4121 29.3589 20.2168 28.1629 19.7337L27.6937 19.5267L27.1814 22.4265C28.0337 22.7888 29.6062 23.1004 31.2386 23.1167C35.0664 23.1167 37.5539 21.3802 37.5802 18.6892C37.5961 17.217 36.6249 16.0937 34.5204 15.1719C33.2466 14.5706 32.4674 14.171 32.4749 13.5644C32.4749 13.0258 33.1361 12.45 34.5616 12.45Z" fill="white"/>
<path d="M47.4535 9.98077H44.6401C43.7662 9.98077 43.1163 10.2115 42.7323 11.0561L37.3254 22.9298H41.1495C41.1495 22.9298 41.7732 21.3332 41.9146 20.9835C42.3333 20.9835 46.0487 20.989 46.5778 20.989C46.6865 21.4412 47.0218 22.9298 47.0218 22.9298H50.4L47.4535 9.98077ZM42.9627 18.3316C43.2624 17.5879 44.4134 14.7107 44.4134 14.7107C44.3938 14.7461 44.7103 13.9614 44.8986 13.4737L45.1439 14.5908C45.1439 14.5908 45.8417 17.684 45.9878 18.3316H42.9627Z" fill="white"/>
</g>
</g>
</g>
<defs>
<clipPath id="clip0_2_2272">
<rect width="56" height="32" fill="white"/>
</clipPath>
</defs>
</svg>
